Coordinates
version=1
nRows=18
nColumns=19
inDegrees=yes

Units are S.I. units (second, meters, Newtons, ...)
If the header above contains a line with 'inDegrees', this indicates whether rotational values are in degrees (yes) or radians (no).

endheader
time	pelvis_tilt	pelvis_list	pelvis_rotation	pelvis_tx	pelvis_ty	pelvis_tz	hip_flexion_r	hip_adduction_r	hip_rotation_r	knee_angle_r	knee_angle_r_beta	ankle_angle_r	hip_flexion_l	hip_adduction_l	hip_rotation_l	knee_angle_l	knee_angle_l_beta	ankle_angle_l
     11.56000000	     -2.04354844	    -12.39529407	     -3.32680267	      2.22713049	      1.05719479	      1.04156981	     19.44404639	     17.55092349	     -6.71076570	      7.49039750	      0.13073210	     -0.30724884	    -16.87257447	    -20.14037834	    -20.17296319	     65.74241100	      1.14742153	    -17.06586255
     11.56666667	     -1.41023235	    -13.09247953	     -3.36872156	      2.22647622	      1.05240617	      1.04185814	     19.17553553	     18.14100613	     -8.30865479	      9.53338945	      0.16638903	     -0.33051179	    -16.48205830	    -21.14733256	    -19.35440694	     68.95912496	      1.20356378	    -16.55018126
     11.57333333	     -1.73322239	    -13.54329009	     -3.38208793	      2.22549373	      1.04637169	      1.04206857	     20.20084193	     18.32977958	    -10.22839792	     12.30873315	      0.21482792	     -0.12719248	    -14.66346029	    -21.97122876	    -17.95629258	     72.43310671	      1.26419620	    -15.89802251
     11.58000000	     -1.73301029	    -14.09643949	     -3.45606722	      2.22443452	      1.04044914	      1.04215723	     20.83344632	     18.57950028	    -11.82988668	     15.32478107	      0.26746789	      0.34782288	    -13.23951201	    -22.86047199	    -16.79051919	     75.78423746	      1.32268446	    -15.19071917
     11.58666667	     -1.85665733	    -14.64449973	     -3.55935363	      2.22325651	      1.03425446	      1.04217432	     21.57050867	     18.78536305	    -13.16649149	     18.53596343	      0.32351359	      1.10365185	    -11.58447468	    -23.76932884	    -15.60590974	     79.10965395	      1.38072393	    -14.49474053
     11.59333333	     -1.29240627	    -15.44753479	     -3.70919347	      2.22214571	      1.02877747	      1.04215472	     21.36142828	     19.31462501	    -13.96796878	     21.60869856	      0.37714294	      2.16783750	    -10.85701123	    -24.90887355	    -14.82537806	     82.16899061	      1.43411943	    -13.69468640
     11.60000000	     -2.29729155	    -15.66672691	     -3.80564634	      2.22041921	      1.02178761	      1.04211809	     23.00930105	     19.14344126	    -14.88113583	     25.03656436	      0.43697048	      3.55695794	     -7.71325583	    -25.49263395	    -13.00109795	     85.58063681	      1.49366389	    -12.87264415
     11.60666667	     -2.57038353	    -16.09942007	     -3.99471278	      2.21871867	      1.01583086	      1.04218811	     23.59290384	     19.33217127	    -15.20505488	     28.12725076	      0.49091314	      5.22909780	     -5.57244041	    -26.24731848	    -11.64514332	     88.65108430	      1.54725331	    -12.00532683
     11.61333333	     -2.91982381	    -16.50769886	     -4.23763810	      2.21688008	      1.01020734	      1.04237185	     24.07764358	     19.59035169	    -15.22238089	     30.95888854	      0.54033454	      7.07437410	     -3.25968195	    -26.97912332	    -10.27541752	     91.57851482	      1.59834661	    -11.11892284
     11.62000000	     -3.30183772	    -16.85847296	     -4.52975351	      2.21487430	      1.00508457	      1.04268579	     24.39474276	     19.88550290	    -14.96632438	     33.47152620	      0.58418834	      9.04891453	     -0.81973213	    -27.62863406	     -8.88165525	     94.32672857	      1.64631199	    -10.21849126
     11.62666667	     -3.66964082	    -17.14636556	     -4.86566144	      2.21274276	      1.00063600	      1.04312490	     24.46734657	     20.20860174	    -14.47902809	     35.60460327	      0.62141756	     11.05764200	      1.67493508	    -28.18537517	     -7.49820336	     96.85290203	      1.69040203	     -9.31474990
     11.63333333	     -4.05273008	    -17.35040187	     -5.24812295	      2.21054360	      0.99690075	      1.04368181	     24.31252795	     20.52342233	    -13.81103185	     37.33361419	      0.65159449	     13.03281648	      4.24211294	    -28.63410340	     -6.14851086	     99.12881016	      1.73012412	     -8.39022594
     11.64000000	     -4.37251189	    -17.44027193	     -5.60925746	      2.20830359	      0.99404673	      1.04424525	     23.84471240	     20.76479629	    -13.00814415	     38.63238342	      0.67426229	     14.87786816	      6.81596999	    -28.89276589	     -4.78992050	    101.12090088	      1.76489266	     -7.48668413
     11.64666667	     -4.66888496	    -17.41821016	     -5.94075348	      2.20619033	      0.99204314	      1.04478784	     23.09977739	     20.91491614	    -12.12205790	     39.49530712	      0.68932315	     16.59407406	      9.40106171	    -28.98076455	     -3.47342904	    102.79895282	      1.79418019	     -6.59641281
     11.65333333	     -4.88640723	    -17.29091498	     -6.20839046	      2.20423125	      0.99094357	      1.04527403	     22.02963964	     20.95565470	    -11.19034576	     39.92455176	      0.69681488	     18.09662514	     11.92617166	    -28.88566227	     -2.20319688	    104.14701957	      1.81770840	     -5.73946361
     11.66000000	     -4.71021043	    -17.03435706	     -6.52700056	      2.20267598	      0.99124511	      1.04582228	     20.21909016	     20.91211030	     -9.94165537	     39.87673084	      0.69598025	     19.38494982	     13.79725026	    -28.62230825	     -1.37164030	    105.02869671	      1.83309657	     -4.89167130
     11.66666667	     -4.60617072	    -16.67106239	     -6.75450346	      2.20123193	      0.99209114	      1.04627311	     18.36186630	     20.72412343	     -8.72632456	     39.55390949	      0.69034595	     20.28608791	     15.79878919	    -28.17636028	     -0.51881707	    105.64017135	      1.84376881	     -4.11108599
     11.67333333	     -4.87266112	    -16.28354816	     -6.29144673	      2.20043292	      0.99314691	      1.04590112	     16.77943163	     20.26034721	     -8.45941271	     38.66469468	      0.67482623	     21.07517497	     18.65836066	    -27.42013996	      1.14952296	    106.03194899	      1.85060662	     -3.44306086
